<mxfile host="65bd71144e">
    <diagram id="xUCyzBrWJu7NxVFF2eS0" name="Page-1">
        <mxGraphModel dx="775" dy="548" grid="1" gridSize="10" guides="1" tooltips="1" connect="1" arrows="1" fold="1" page="1" pageScale="1" pageWidth="850" pageHeight="1100" math="0" shadow="0">
            <root>
                <mxCell id="0"/>
                <mxCell id="1" parent="0"/>
                <mxCell id="2" value="" style="shape=internalStorage;whiteSpace=wrap;html=1;backgroundOutline=1;dx=220;dy=60;" parent="1" vertex="1">
                    <mxGeometry x="150" y="600" width="430" height="450" as="geometry"/>
                </mxCell>
                <mxCell id="3" value="Atrributes" style="text;html=1;strokeColor=none;fillColor=none;align=center;verticalAlign=middle;whiteSpace=wrap;rounded=0;" parent="1" vertex="1">
                    <mxGeometry x="225" y="620" width="60" height="30" as="geometry"/>
                </mxCell>
                <mxCell id="4" value="Methods" style="text;html=1;strokeColor=none;fillColor=none;align=center;verticalAlign=middle;whiteSpace=wrap;rounded=0;" parent="1" vertex="1">
                    <mxGeometry x="430" y="620" width="55" height="30" as="geometry"/>
                </mxCell>
                <mxCell id="5" value="" style="endArrow=none;html=1;" parent="1" target="2" edge="1">
                    <mxGeometry width="50" height="50" relative="1" as="geometry">
                        <mxPoint x="150" y="880" as="sourcePoint"/>
                        <mxPoint x="200" y="830" as="targetPoint"/>
                        <Array as="points">
                            <mxPoint x="580" y="880"/>
                        </Array>
                    </mxGeometry>
                </mxCell>
                <mxCell id="6" value="" style="endArrow=none;html=1;" parent="1" edge="1">
                    <mxGeometry width="50" height="50" relative="1" as="geometry">
                        <mxPoint x="150" y="910" as="sourcePoint"/>
                        <mxPoint x="580" y="910" as="targetPoint"/>
                        <Array as="points">
                            <mxPoint x="580" y="910"/>
                        </Array>
                    </mxGeometry>
                </mxCell>
                <mxCell id="7" value="Responsibi;ity" style="text;html=1;strokeColor=none;fillColor=none;align=center;verticalAlign=middle;whiteSpace=wrap;rounded=0;" parent="1" vertex="1">
                    <mxGeometry x="197.5" y="880" width="115" height="30" as="geometry"/>
                </mxCell>
                <mxCell id="8" value="Collaborator" style="text;html=1;strokeColor=none;fillColor=none;align=center;verticalAlign=middle;whiteSpace=wrap;rounded=0;" parent="1" vertex="1">
                    <mxGeometry x="430" y="880" width="115" height="30" as="geometry"/>
                </mxCell>
                <mxCell id="9" value="&lt;font style=&quot;font-size: 18px;&quot;&gt;-userID&lt;br&gt;-items&lt;br&gt;-price&lt;br&gt;-lastModified&lt;br&gt;&lt;/font&gt;" style="text;html=1;strokeColor=none;fillColor=none;align=left;verticalAlign=middle;whiteSpace=wrap;rounded=0;" parent="1" vertex="1">
                    <mxGeometry x="160" y="635" width="190" height="160" as="geometry"/>
                </mxCell>
                <mxCell id="10" value="&lt;font style=&quot;font-size: 18px;&quot;&gt;+addItem()&lt;br&gt;+removeItem()&lt;br&gt;+clearCart()&lt;br&gt;+getCartItems()&lt;br&gt;+calculateTotal()&lt;br&gt;&lt;/font&gt;" style="text;html=1;strokeColor=none;fillColor=none;align=left;verticalAlign=middle;whiteSpace=wrap;rounded=0;" parent="1" vertex="1">
                    <mxGeometry x="380" y="635" width="180" height="180" as="geometry"/>
                </mxCell>
                <mxCell id="11" value="&lt;font style=&quot;font-size: 18px;&quot;&gt;1. add product to cart&lt;br&gt;2. remove product&lt;br&gt;3. clear the cart&lt;br&gt;4. calculate amount&lt;br&gt;5. submit order&lt;br&gt;6. Apply discount&lt;br&gt;&lt;/font&gt;" style="text;html=1;strokeColor=none;fillColor=none;align=left;verticalAlign=middle;whiteSpace=wrap;rounded=0;" parent="1" vertex="1">
                    <mxGeometry x="165" y="920" width="185" height="120" as="geometry"/>
                </mxCell>
                <mxCell id="12" value="&lt;font style=&quot;font-size: 18px;&quot;&gt;-User&lt;br&gt;-User&lt;br&gt;-User&lt;br&gt;-Payment&lt;br&gt;-Order&lt;br&gt;-Payment&lt;br&gt;&lt;/font&gt;" style="text;html=1;strokeColor=none;fillColor=none;align=left;verticalAlign=middle;whiteSpace=wrap;rounded=0;" parent="1" vertex="1">
                    <mxGeometry x="380" y="920" width="170" height="120" as="geometry"/>
                </mxCell>
            </root>
        </mxGraphModel>
    </diagram>
</mxfile>